HIERARCHY
ROOT Hips
{
  OFFSET 0 0 0
  CHANNELS 6 Xposition Yposition Zposition Zrotation Yrotation Xrotation
  JOINT LeftThigh
  {
    OFFSET 8.759831 0 -6.164326
    CHANNELS 3 Zrotation Yrotation Xrotation
    JOINT LeftLeg
    {
      OFFSET 0 0 -44.123596
      CHANNELS 3 Zrotation Yrotation Xrotation
      JOINT LeftFoot
      {
        OFFSET 0 0 -40.997191
        CHANNELS 3 Zrotation Yrotation Xrotation
        End Site
        {
          OFFSET 0 -13.883989 -5.217556
        }
      }
    }
  }
  JOINT RightThigh
  {
    OFFSET -8.759831 0 -6.164326
    CHANNELS 3 Zrotation Yrotation Xrotation
    JOINT RightLeg
    {
      OFFSET 0 0 -44.123596
      CHANNELS 3 Zrotation Yrotation Xrotation
      JOINT RightFoot
      {
        OFFSET 0 0 -40.997191
        CHANNELS 3 Zrotation Yrotation Xrotation
        End Site
        {
          OFFSET 0 -13.883989 -5.217556
        }
      }
    }
  }
  JOINT SpineLow
  {
    OFFSET 0 0 4.91573
    CHANNELS 3 Zrotation Yrotation Xrotation
    JOINT SpineMid
    {
      OFFSET 0 0 13.436657
      CHANNELS 3 Zrotation Yrotation Xrotation
      JOINT Chest
      {
        OFFSET 0 0 13.436657
        CHANNELS 3 Zrotation Yrotation Xrotation
        JOINT LeftShoulder
        {
          OFFSET 7.865169 1.474719 9.831461
          CHANNELS 3 Zrotation Yrotation Xrotation
          JOINT LeftArm
          {
            OFFSET 9.536517 0 4.424157
            CHANNELS 3 Zrotation Yrotation Xrotation
            JOINT LeftForearm
            {
              OFFSET 0 0 26.845787
              CHANNELS 3 Zrotation Yrotation Xrotation
              JOINT LeftHand
              {
                OFFSET 0 0 26.247051
                CHANNELS 3 Zrotation Yrotation Xrotation
              }
            }
          }
        }
        JOINT RightShoulder
        {
          OFFSET -7.865169 1.474719 9.831461
          CHANNELS 3 Zrotation Yrotation Xrotation
          JOINT RightArm
          {
            OFFSET -9.536517 0 4.424157
            CHANNELS 3 Zrotation Yrotation Xrotation
            JOINT RightForearm
            {
              OFFSET 0 0 -26.845787
              CHANNELS 3 Zrotation Yrotation Xrotation
              JOINT RightHand
              {
                OFFSET 0 0 -26.247051
                CHANNELS 3 Zrotation Yrotation Xrotation
              }
            }
          }
        }
        JOINT Neck
        {
          OFFSET 0 0 15.730337
          CHANNELS 3 Zrotation Yrotation Xrotation
          JOINT Head
          {
            OFFSET 0 0 11.797753
            CHANNELS 3 Zrotation Yrotation Xrotation
            End Site
            {
              OFFSET 0 0 7.747191
            }
          }
        }
      }
    }
  }
}
MOTION
Frames: 5
Frame Time: 0.01
82.6824961168045  94.370117  -102.490168159103  8.176239  74.823391  -88.805225  -20.227005  -8.004098  -7.017657  10.688929  14.965865  29.316079  -0.338491  -7.111127  -8.361544  17.338469  10.419261  -17.370449  -18.159377  13.971397  20.846756  3.221316  -22.125337  18.889275  0.242219  -0.784853  0.585095  0.643254  -2.15101  1.591935  0.643254  -2.15101  1.591935  3.942643  8.862115  20.242721  127.512201  32.937157  136.679169  22.750729  33.728025  122.031301  49.634665  -22.884644  -28.516654  17.454051  -2.017358  15.187386  -65.702286  76.868318  -120.753841  -10.381984  4.352577  -22.034245  158.02734  6.08862  -36.159043  -6.43365  2.102655  5.635206  -4.844577  1.518023  4.248631  
82.1321651168045  94.324951  -102.883440159103  6.807934  74.235872  -90.081607  -20.110463  -8.644615  -7.360163  11.55139  15.269259  29.647691  -0.37042  -7.445199  -8.032176  16.931808  9.284802  -17.961175  -17.08934  14.804628  24.64816  3.433326  -21.441911  16.093065  0.234996  -0.821197  0.618871  0.621491  -2.250482  1.68422  0.621491  -2.250482  1.68422  3.864192  8.727725  20.214305  127.110744  32.966404  136.637621  22.24837  33.375836  121.922462  49.559619  -22.5137  -28.664996  17.500638  -2.284822  15.134519  -66.722349  77.226297  -122.123836  -10.564599  4.253517  -22.367647  157.488785  5.765732  -36.127156  -6.289881  2.02356  5.500866  -4.735593  1.461381  4.146574  
81.5521021168045  94.274246  -103.329981159103  5.928965  73.895973  -90.913921  -20.07404  -9.112831  -7.78825  12.204939  15.543004  29.943743  -0.450542  -7.723973  -7.679681  15.807307  8.123815  -18.310878  -15.869801  15.563262  28.541457  2.992484  -19.566508  13.866726  0.189897  -0.845713  0.651483  0.49642  -2.31658  1.774778  0.49642  -2.31658  1.774778  3.826662  8.637675  20.206779  126.696095  32.952254  136.620046  21.751935  33.042356  121.76568  49.482742  -22.187451  -28.806259  17.6154  -2.550042  15.087568  -67.596443  77.549989  -123.285574  -10.845957  4.086243  -22.751761  157.011715  5.350867  -36.140644  -6.125174  1.937523  5.402065  -4.610999  1.399299  4.071072  
80.9808581168045  94.22612  -103.684145159103  5.318582  73.607011  -91.4509  -19.778479  -9.506437  -8.252289  12.549662  15.758187  30.158262  -0.651376  -7.944479  -7.305568  14.976691  7.181836  -18.59453  -15.376644  16.51506  32.589608  2.029609  -17.169559  12.207746  0.129096  -0.857315  0.674222  0.329059  -2.346769  1.839046  0.329059  -2.346769  1.839046  3.847236  8.575993  20.176278  126.286054  32.900474  136.577181  21.274418  32.786081  121.574959  49.350484  -21.883491  -28.840566  17.821487  -2.815444  15.039183  -68.243559  77.846868  -124.083727  -11.22994  3.876695  -23.220541  156.540677  4.931332  -36.107488  -5.938436  1.858918  5.341947  -4.470093  1.342555  4.024626  
80.5012521168045  94.159515  -104.066798159103  5.011316  73.416902  -91.627445  -19.375713  -9.787159  -8.826297  12.726965  16.009419  30.3972  -0.774223  -8.203538  -6.980297  14.722859  6.757674  -19.0138  -15.654631  17.567988  36.99333  0.469262  -14.791007  10.989451  0.070383  -0.864254  0.683198  0.168012  -2.364122  1.865669  0.168012  -2.364122  1.865669  3.79669  8.592319  20.076218  125.899651  32.823925  136.475189  20.897294  32.623119  121.383775  49.156389  -21.678341  -28.795731  17.990495  -3.03031  14.970722  -68.375556  78.122984  -124.330206  -11.672566  3.620502  -23.738248  156.109232  4.418462  -36.044815  -5.802304  1.794845  5.267466  -4.367229  1.296378  3.967745  
